# Blender v3.2.1 OBJ File: 'course1_remake.blend'
# www.blender.org
mtllib course1r_h4.mtl
v 33.000000 -3.000000 -17.000000
v 37.000000 -3.000000 -17.000000
v 33.000000 -3.000000 -7.000000
v 37.000000 -3.000000 -7.000000
v 29.000000 0.000000 -17.000000
v 37.000000 -2.000000 -17.000000
v 29.000000 0.000000 -19.000000
v 37.000000 -2.000000 -19.000000
v 27.000000 0.000000 -17.000000
v 27.000000 0.000000 -19.000000
v 29.000000 0.000000 -21.000000
v 27.000000 0.000000 -21.000000
v 28.000000 0.000000 -21.850000
v 27.893934 0.000000 -21.893934
v 27.850000 0.000000 -22.000000
v 27.893934 0.000000 -22.106066
v 28.000000 0.000000 -22.150000
v 28.106066 0.000000 -22.106066
v 28.150000 0.000000 -22.000000
v 28.106066 0.000000 -21.893934
v 29.000000 0.000000 -23.000000
v 27.000000 0.000000 -23.000000
vt 0.000000 0.000000
vt 1.000000 1.000000
vt 0.000000 0.000000
vt 0.000000 0.000000
vt 0.000000 0.000000
vt 0.000000 0.000000
vt 0.000000 0.000000
vt 1.000000 0.000000
vt 0.000000 0.000000
vt 0.000000 0.000000
vt 0.000000 1.000000
vt 0.000000 0.000000
vt 0.000000 0.000000
vt 0.000000 0.000000
vt 0.000000 0.000000
vt 0.000000 0.000000
vt 0.000000 0.000000
vt 0.000000 0.000000
vt 0.000000 0.000000
vt 0.000000 0.000000
vt 0.000000 0.000000
vt 0.000000 0.000000
vn 0.0000 -1.0000 0.0000
vn -0.0814 -0.9967 0.0000
vn -0.2425 -0.9701 0.0000
vn -0.1222 -0.9925 0.0000
usemtl None
s 1
f 2/1/1 4/2/1 1/3/1
f 9/4/1 10/5/1 7/6/2
f 7/6/2 8/7/3 6/8/3
f 12/9/1 11/10/1 7/6/2
f 3/11/1 1/3/1 4/2/1
f 5/12/4 7/6/2 6/8/3
f 5/12/4 9/4/1 7/6/2
f 10/5/1 12/9/1 7/6/2
f 21/13/1 11/10/1 19/14/1
f 17/15/1 22/16/1 21/13/1
f 15/17/1 12/9/1 22/16/1
f 11/10/1 12/9/1 13/18/1
f 13/18/1 20/19/1 11/10/1
f 19/14/1 11/10/1 20/19/1
f 18/20/1 21/13/1 19/14/1
f 17/15/1 21/13/1 18/20/1
f 17/15/1 16/21/1 22/16/1
f 15/17/1 22/16/1 16/21/1
f 14/22/1 12/9/1 15/17/1
f 13/18/1 12/9/1 14/22/1
