# Blender v3.2.1 OBJ File: 'course1_remake.blend'
# www.blender.org
mtllib course1r_h7.mtl
v -3.000000 0.000000 -41.000000
v -1.000000 0.000000 -41.000000
v -3.000000 0.000000 -37.000000
v -1.000000 0.000000 -37.000000
v -3.000000 -0.500000 -35.000000
v -1.000000 -0.500000 -35.000000
v -1.000000 0.000000 -35.000000
v -3.000000 0.000000 -35.000000
v -1.000000 0.000000 -33.000000
v -3.000000 0.000000 -33.000000
v -9.000000 0.000000 -35.000000
v -9.000000 0.000000 -33.000000
v 1.000000 0.000000 -35.000000
v 1.000000 0.000000 -33.000000
v -12.000000 0.000000 -35.000000
v -12.000000 0.000000 -33.000000
v -9.000000 0.000000 -32.500000
v -12.000000 0.000000 -32.500000
v -9.000000 0.000000 -30.500000
v -12.000000 0.000000 -30.500000
v -9.000000 0.000000 -30.000000
v -12.000000 0.000000 -30.000000
v -9.000000 0.000000 -28.000000
v -12.000000 0.000000 -28.000000
v -1.000000 0.000000 -27.500000
v 1.000000 0.000000 -27.500000
v 1.000000 0.000000 -28.000000
v 1.000000 0.000000 -30.000000
v 1.000000 0.000000 -32.500000
v 1.000000 0.000000 -30.500000
v -1.000000 0.000000 -30.000000
v -1.000000 0.000000 -28.000000
v -1.000000 0.000000 -25.500000
v 1.000000 0.000000 -25.500000
v -5.000000 0.000000 -27.500000
v -5.000000 0.000000 -25.500000
v -7.000000 -0.500000 -27.500000
v -7.000000 -0.500000 -25.500000
v -10.000000 0.000000 -31.350000
v -10.106066 0.000000 -31.393934
v -10.150000 0.000000 -31.500000
v -10.106066 0.000000 -31.606066
v -10.000000 0.000000 -31.650000
v -9.893934 0.000000 -31.606066
v -9.850000 0.000000 -31.500000
v -9.893934 0.000000 -31.393934
vt 0.000000 0.000000
vt 1.000000 1.000000
vt 0.000000 0.000000
vt 0.000000 1.000000
vt 0.000000 1.000000
vt 1.000000 1.000000
vt 0.000000 1.000000
vt 1.000000 1.000000
vt 0.000000 1.000000
vt 0.000000 1.000000
vt 1.000000 1.000000
vt 1.000000 1.000000
vt 0.000000 1.000000
vt 0.000000 1.000000
vt 0.000000 1.000000
vt 0.000000 1.000000
vt 0.000000 1.000000
vt 0.000000 0.000000
vt 0.000000 1.000000
vt 0.000000 1.000000
vt 0.000000 1.000000
vt 0.000000 1.000000
vt 0.000000 1.000000
vt 0.000000 1.000000
vt 0.000000 1.000000
vt 0.000000 1.000000
vt 0.000000 1.000000
vt 0.000000 1.000000
vt 0.000000 1.000000
vt 0.000000 1.000000
vt 0.000000 1.000000
vt 0.000000 1.000000
vt 0.000000 1.000000
vt 0.000000 1.000000
vt 0.000000 0.000000
vt 0.000000 0.000000
vt 0.000000 0.000000
vt 0.000000 0.000000
vt 0.000000 0.000000
vt 0.000000 0.000000
vt 0.000000 0.000000
vt 0.000000 0.000000
vt 0.000000 0.000000
vt 1.000000 1.000000
vt 0.000000 1.000000
vt 0.000000 1.000000
vt 0.000000 1.000000
vt 0.000000 1.000000
vn 0.0000 -1.0000 0.0000
vn 0.0000 -0.9701 -0.2425
vn 0.0000 0.0000 1.0000
vn 0.2425 -0.9701 0.0000
usemtl None
s off
f 2/1/1 4/2/1 1/3/1
f 4/2/2 5/4/2 3/5/2
f 6/6/3 8/7/3 5/4/3
f 7/8/1 10/9/1 8/7/1
f 10/9/1 11/10/1 8/7/1
f 7/8/1 14/11/1 9/12/1
f 12/13/1 15/14/1 11/10/1
f 12/13/1 18/15/1 16/16/1
f 20/17/1 39/18/1 19/19/1
f 19/19/1 22/20/1 20/17/1
f 21/21/1 24/22/1 22/20/1
f 31/23/1 27/24/1 32/25/1
f 27/24/1 25/26/1 32/25/1
f 17/27/1 30/28/1 19/19/1
f 21/21/1 32/25/1 23/29/1
f 26/30/1 33/31/1 25/26/1
f 33/31/1 35/32/1 25/26/1
f 36/33/4 37/34/4 35/32/4
f 17/27/1 19/19/1 45/35/1
f 18/15/1 17/27/1 43/36/1
f 18/37/1 41/38/1 20/39/1
f 40/40/1 20/39/1 41/38/1
f 39/18/1 20/39/1 40/40/1
f 39/18/1 46/41/1 19/19/1
f 45/35/1 19/19/1 46/41/1
f 45/35/1 44/42/1 17/27/1
f 43/36/1 17/27/1 44/42/1
f 43/36/1 42/43/1 18/15/1
f 41/38/1 18/37/1 42/43/1
f 4/2/1 3/5/1 1/3/1
f 4/2/2 6/6/2 5/4/2
f 6/6/3 7/8/3 8/7/3
f 7/8/1 9/12/1 10/9/1
f 10/9/1 12/13/1 11/10/1
f 7/8/1 13/44/1 14/11/1
f 12/13/1 16/16/1 15/14/1
f 12/13/1 17/27/1 18/15/1
f 19/19/1 21/21/1 22/20/1
f 21/21/1 23/29/1 24/22/1
f 31/23/1 28/45/1 27/24/1
f 27/24/1 26/30/1 25/26/1
f 17/27/1 29/46/1 30/28/1
f 21/21/1 31/23/1 32/25/1
f 26/30/1 34/47/1 33/31/1
f 33/31/1 36/33/1 35/32/1
f 36/33/4 38/48/4 37/34/4
