# Blender v2.90.1 OBJ File: 'sample_course.blend'
# www.blender.org
mtllib ball.mtl
o GolfBall_Sphere
v 0.000000 -0.070711 0.070711 1.0 0.225 0.0
v 0.000000 -0.038268 0.092388 1.0 0.225 0.0
v 0.000000 0.000000 0.100000 1.0 0.225 0.0
v 0.000000 0.038268 0.092388 1.0 0.225 0.0
v 0.000000 0.092388 0.038268 1.0 0.225 0.0
v 0.014645 -0.092388 0.035355 1.0 0.225 0.0
v 0.027060 -0.070711 0.065328 1.0 0.225 0.0
v 0.035355 -0.038268 0.085355 1.0 0.225 0.0
v 0.038268 0.000000 0.092388 1.0 0.225 0.0
v 0.035355 0.038268 0.085355 1.0 0.225 0.0
v 0.027060 0.070711 0.065328 1.0 0.225 0.0
v 0.014645 0.092388 0.035355 1.0 0.225 0.0
v 0.027060 -0.092388 0.027060 1.0 0.225 0.0
v 0.050000 -0.070711 0.050000 1.0 0.225 0.0
v 0.065328 -0.038268 0.065328 1.0 0.225 0.0
v 0.070711 0.000000 0.070711 1.0 0.225 0.0
v 0.065328 0.038268 0.065328 1.0 0.225 0.0
v 0.050000 0.070711 0.050000 1.0 0.225 0.0
v 0.027060 0.092388 0.027060 1.0 0.225 0.0
v 0.035355 -0.092388 0.014645 1.0 0.225 0.0
v 0.065328 -0.070711 0.027060 1.0 0.225 0.0
v 0.085355 -0.038268 0.035355 1.0 0.225 0.0
v 0.092388 0.000000 0.038268 1.0 0.225 0.0
v 0.085355 0.038268 0.035355 1.0 0.225 0.0
v 0.065328 0.070711 0.027060 1.0 0.225 0.0
v 0.035355 0.092388 0.014645 1.0 0.225 0.0
v 0.038268 -0.092388 0.000000 1.0 0.225 0.0
v 0.070711 -0.070711 0.000000 1.0 0.225 0.0
v 0.092388 -0.038268 0.000000 1.0 0.225 0.0
v 0.100000 0.000000 0.000000 1.0 0.225 0.0
v 0.092388 0.038268 0.000000 1.0 0.225 0.0
v 0.070711 0.070711 0.000000 1.0 0.225 0.0
v 0.038268 0.092388 0.000000 1.0 0.225 0.0
v 0.035355 -0.092388 -0.014645 1.0 0.225 0.0
v 0.065328 -0.070711 -0.027060 1.0 0.225 0.0
v 0.085355 -0.038268 -0.035355 1.0 0.225 0.0
v 0.092388 0.000000 -0.038268 1.0 0.225 0.0
v 0.085355 0.038268 -0.035355 1.0 0.225 0.0
v 0.065328 0.070711 -0.027060 1.0 0.225 0.0
v 0.035355 0.092388 -0.014645 1.0 0.225 0.0
v 0.027060 -0.092388 -0.027060 1.0 0.225 0.0
v 0.050000 -0.070711 -0.050000 1.0 0.225 0.0
v 0.065328 -0.038268 -0.065328 1.0 0.225 0.0
v 0.070711 0.000000 -0.070711 1.0 0.225 0.0
v 0.065328 0.038268 -0.065328 1.0 0.225 0.0
v 0.050000 0.070711 -0.050000 1.0 0.225 0.0
v 0.027060 0.092388 -0.027060 1.0 0.225 0.0
v 0.014645 -0.092388 -0.035355 1.0 0.225 0.0
v 0.027060 -0.070711 -0.065328 1.0 0.225 0.0
v 0.035355 -0.038268 -0.085355 1.0 0.225 0.0
v 0.038268 0.000000 -0.092388 1.0 0.225 0.0
v 0.035355 0.038268 -0.085355 1.0 0.225 0.0
v 0.027060 0.070711 -0.065328 1.0 0.225 0.0
v 0.014645 0.092388 -0.035355 1.0 0.225 0.0
v -0.000000 -0.092388 -0.038268 1.0 0.225 0.0
v -0.000000 -0.070711 -0.070711 1.0 0.225 0.0
v -0.000000 -0.038268 -0.092388 1.0 0.225 0.0
v -0.000000 0.000000 -0.100000 1.0 0.225 0.0
v -0.000000 0.038268 -0.092388 1.0 0.225 0.0
v -0.000000 0.070711 -0.070711 1.0 0.225 0.0
v -0.000000 0.092388 -0.038268 1.0 0.225 0.0
v -0.014645 -0.092388 -0.035355 1.0 0.225 0.0
v -0.027060 -0.070711 -0.065328 1.0 0.225 0.0
v -0.035355 -0.038268 -0.085355 1.0 0.225 0.0
v -0.038268 0.000000 -0.092388 1.0 0.225 0.0
v -0.035355 0.038268 -0.085355 1.0 0.225 0.0
v -0.027060 0.070711 -0.065328 1.0 0.225 0.0
v -0.014645 0.092388 -0.035355 1.0 0.225 0.0
v -0.027060 -0.092388 -0.027060 1.0 0.225 0.0
v -0.050000 -0.070711 -0.050000 1.0 0.225 0.0
v -0.065328 -0.038268 -0.065328 1.0 0.225 0.0
v -0.070711 0.000000 -0.070711 1.0 0.225 0.0
v -0.065328 0.038268 -0.065328 1.0 0.225 0.0
v -0.050000 0.070711 -0.050000 1.0 0.225 0.0
v -0.027060 0.092388 -0.027060 1.0 0.225 0.0
v -0.035355 -0.092388 -0.014645 1.0 0.225 0.0
v -0.065328 -0.070711 -0.027060 1.0 0.225 0.0
v -0.085355 -0.038268 -0.035355 1.0 0.225 0.0
v -0.092388 0.000000 -0.038268 1.0 0.225 0.0
v -0.085355 0.038268 -0.035355 1.0 0.225 0.0
v -0.065328 0.070711 -0.027060 1.0 0.225 0.0
v -0.035355 0.092388 -0.014645 1.0 0.225 0.0
v -0.038268 -0.092388 0.000000 1.0 0.225 0.0
v -0.070711 -0.070711 0.000000 1.0 0.225 0.0
v -0.092388 -0.038268 0.000000 1.0 0.225 0.0
v -0.100000 0.000000 0.000000 1.0 0.225 0.0
v -0.092388 0.038268 0.000000 1.0 0.225 0.0
v -0.070711 0.070711 0.000000 1.0 0.225 0.0
v -0.038268 0.092388 0.000000 1.0 0.225 0.0
v -0.035355 -0.092388 0.014645 1.0 0.225 0.0
v -0.065328 -0.070711 0.027060 1.0 0.225 0.0
v -0.085355 -0.038268 0.035355 1.0 0.225 0.0
v -0.092388 0.000000 0.038268 1.0 0.225 0.0
v -0.085355 0.038268 0.035355 1.0 0.225 0.0
v -0.065328 0.070711 0.027060 1.0 0.225 0.0
v -0.035355 0.092388 0.014645 1.0 0.225 0.0
v -0.027060 -0.092388 0.027060 1.0 0.225 0.0
v -0.050000 -0.070711 0.050000 1.0 0.225 0.0
v -0.065328 -0.038268 0.065328 1.0 0.225 0.0
v -0.070711 0.000000 0.070711 1.0 0.225 0.0
v -0.065328 0.038268 0.065328 1.0 0.225 0.0
v -0.050000 0.070711 0.050000 1.0 0.225 0.0
v -0.027060 0.092388 0.027060 1.0 0.225 0.0
v -0.014645 -0.092388 0.035355 1.0 0.225 0.0
v -0.027060 -0.070711 0.065328 1.0 0.225 0.0
v -0.035355 -0.038268 0.085355 1.0 0.225 0.0
v -0.038268 0.000000 0.092388 1.0 0.225 0.0
v -0.035355 0.038268 0.085355 1.0 0.225 0.0
v -0.027060 0.070711 0.065328 1.0 0.225 0.0
v -0.014645 0.092388 0.035355 1.0 0.225 0.0
v -0.000000 -0.100000 0.000000 1.0 0.225 0.0
v 0.000000 -0.092388 0.038268 1.0 0.225 0.0
v 0.000000 0.070711 0.070711 1.0 0.225 0.0
v 0.000000 0.100000 0.000000 1.0 0.225 0.0
vt 0.750000 0.250000
vt 0.687500 0.375000
vt 0.687500 0.250000
vt 0.750000 0.625000
vt 0.687500 0.500000
vt 0.750000 0.500000
vt 0.750000 0.875000
vt 0.687500 0.750000
vt 0.750000 0.750000
vt 0.687500 0.125000
vt 0.750000 0.125000
vt 0.750000 0.375000
vt 0.687500 0.625000
vt 0.718750 1.000000
vt 0.687500 0.875000
vt 0.718750 0.000000
vt 0.625000 0.250000
vt 0.625000 0.125000
vt 0.625000 0.375000
vt 0.625000 0.625000
vt 0.656250 1.000000
vt 0.625000 0.875000
vt 0.656250 0.000000
vt 0.625000 0.500000
vt 0.625000 0.750000
vt 0.562500 0.625000
vt 0.593750 1.000000
vt 0.562500 0.875000
vt 0.593750 0.000000
vt 0.562500 0.125000
vt 0.562500 0.375000
vt 0.562500 0.250000
vt 0.562500 0.500000
vt 0.562500 0.750000
vt 0.531250 0.000000
vt 0.500000 0.125000
vt 0.500000 0.250000
vt 0.500000 0.500000
vt 0.500000 0.750000
vt 0.500000 0.375000
vt 0.500000 0.625000
vt 0.531250 1.000000
vt 0.500000 0.875000
vt 0.437500 0.750000
vt 0.437500 0.125000
vt 0.437500 0.375000
vt 0.437500 0.625000
vt 0.468750 1.000000
vt 0.437500 0.875000
vt 0.468750 0.000000
vt 0.437500 0.250000
vt 0.437500 0.500000
vt 0.375000 0.125000
vt 0.375000 0.500000
vt 0.375000 0.375000
vt 0.375000 0.625000
vt 0.406250 1.000000
vt 0.375000 0.875000
vt 0.406250 0.000000
vt 0.375000 0.250000
vt 0.375000 0.750000
vt 0.343750 1.000000
vt 0.312500 0.875000
vt 0.343750 0.000000
vt 0.312500 0.125000
vt 0.312500 0.375000
vt 0.312500 0.250000
vt 0.312500 0.500000
vt 0.312500 0.750000
vt 0.312500 0.625000
vt 0.250000 0.250000
vt 0.250000 0.500000
vt 0.250000 0.875000
vt 0.250000 0.750000
vt 0.250000 0.125000
vt 0.250000 0.375000
vt 0.250000 0.625000
vt 0.281250 1.000000
vt 0.281250 0.000000
vt 0.187500 0.125000
vt 0.187500 0.375000
vt 0.187500 0.625000
vt 0.218750 1.000000
vt 0.187500 0.875000
vt 0.218750 0.000000
vt 0.187500 0.250000
vt 0.187500 0.500000
vt 0.187500 0.750000
vt 0.125000 0.375000
vt 0.125000 0.625000
vt 0.156250 1.000000
vt 0.125000 0.875000
vt 0.156250 0.000000
vt 0.125000 0.125000
vt 0.125000 0.250000
vt 0.125000 0.500000
vt 0.125000 0.750000
vt 0.093750 0.000000
vt 0.062500 0.125000
vt 0.062500 0.250000
vt 0.062500 0.500000
vt 0.062500 0.750000
vt 0.062500 0.375000
vt 0.062500 0.625000
vt 0.093750 1.000000
vt 0.062500 0.875000
vt 0.000000 0.625000
vt 0.000000 0.500000
vt 0.000000 0.750000
vt 0.000000 0.125000
vt 0.000000 0.375000
vt 0.031250 1.000000
vt 0.000000 0.875000
vt 0.031250 0.000000
vt 0.000000 0.250000
vt 1.000000 0.250000
vt 0.937500 0.125000
vt 1.000000 0.125000
vt 1.000000 0.500000
vt 0.937500 0.375000
vt 1.000000 0.375000
vt 1.000000 0.750000
vt 0.937500 0.625000
vt 1.000000 0.625000
vt 1.000000 0.875000
vt 0.968750 1.000000
vt 0.937500 0.875000
vt 0.968750 0.000000
vt 0.937500 0.250000
vt 0.937500 0.500000
vt 0.937500 0.750000
vt 0.875000 0.750000
vt 0.875000 0.625000
vt 0.906250 1.000000
vt 0.875000 0.875000
vt 0.906250 0.000000
vt 0.875000 0.125000
vt 0.875000 0.375000
vt 0.875000 0.250000
vt 0.875000 0.500000
vt 0.843750 0.000000
vt 0.812500 0.125000
vt 0.812500 0.375000
vt 0.812500 0.250000
vt 0.812500 0.500000
vt 0.812500 0.750000
vt 0.812500 0.625000
vt 0.843750 1.000000
vt 0.812500 0.875000
vt 0.781250 1.000000
vt 0.781250 0.000000
vn 0.0000 0.6952 0.7188
vn 0.3548 0.3743 0.8567
vn 0.2751 0.6952 0.6641
vn 0.0000 -0.3743 0.9273
vn 0.3827 0.0000 0.9239
vn 0.0000 0.0000 1.0000
vn 0.0000 -0.9152 0.4031
vn 0.2751 -0.6952 0.6641
vn 0.0000 -0.6952 0.7188
vn 0.1542 0.9152 0.3724
vn 0.0000 0.9152 0.4031
vn 0.0000 0.3743 0.9273
vn 0.3548 -0.3743 0.8567
vn 0.0000 -1.0000 0.0000
vn 0.1542 -0.9152 0.3724
vn 0.0000 1.0000 0.0000
vn 0.5083 0.6952 0.5083
vn 0.2850 0.9152 0.2850
vn 0.6557 0.3743 0.6557
vn 0.6557 -0.3743 0.6557
vn 0.2850 -0.9152 0.2850
vn 0.7071 0.0000 0.7071
vn 0.5083 -0.6952 0.5083
vn 0.8567 -0.3743 0.3548
vn 0.3724 -0.9152 0.1542
vn 0.3724 0.9152 0.1542
vn 0.8567 0.3743 0.3548
vn 0.6641 0.6952 0.2751
vn 0.9239 0.0000 0.3827
vn 0.6641 -0.6952 0.2751
vn 0.4031 0.9152 0.0000
vn 0.7188 0.6952 0.0000
vn 1.0000 0.0000 0.0000
vn 0.7188 -0.6952 0.0000
vn 0.9273 0.3743 0.0000
vn 0.9273 -0.3743 0.0000
vn 0.4031 -0.9152 0.0000
vn 0.6641 -0.6952 -0.2751
vn 0.3724 0.9152 -0.1542
vn 0.8567 0.3743 -0.3548
vn 0.8567 -0.3743 -0.3548
vn 0.3724 -0.9152 -0.1542
vn 0.6641 0.6952 -0.2751
vn 0.9239 0.0000 -0.3827
vn 0.2850 0.9152 -0.2850
vn 0.7071 0.0000 -0.7071
vn 0.6557 0.3743 -0.6557
vn 0.6557 -0.3743 -0.6557
vn 0.2850 -0.9152 -0.2850
vn 0.5083 0.6952 -0.5083
vn 0.5083 -0.6952 -0.5083
vn 0.1542 -0.9152 -0.3724
vn 0.1542 0.9152 -0.3724
vn 0.3548 0.3743 -0.8567
vn 0.2751 0.6952 -0.6641
vn 0.3827 0.0000 -0.9239
vn 0.2751 -0.6952 -0.6641
vn 0.3548 -0.3743 -0.8567
vn 0.0000 0.6952 -0.7188
vn 0.0000 0.0000 -1.0000
vn 0.0000 -0.9152 -0.4031
vn 0.0000 -0.6952 -0.7188
vn 0.0000 0.9152 -0.4031
vn 0.0000 0.3743 -0.9273
vn 0.0000 -0.3743 -0.9273
vn -0.1542 0.9152 -0.3724
vn -0.3548 0.3743 -0.8567
vn -0.3548 -0.3743 -0.8567
vn -0.1542 -0.9152 -0.3724
vn -0.2751 0.6952 -0.6641
vn -0.3827 0.0000 -0.9239
vn -0.2751 -0.6952 -0.6641
vn -0.6557 0.3743 -0.6557
vn -0.6557 -0.3743 -0.6557
vn -0.2850 -0.9152 -0.2850
vn -0.2850 0.9152 -0.2850
vn -0.5083 0.6952 -0.5083
vn -0.7071 0.0000 -0.7071
vn -0.5083 -0.6952 -0.5083
vn -0.3724 0.9152 -0.1542
vn -0.6641 0.6952 -0.2751
vn -0.9239 0.0000 -0.3827
vn -0.6641 -0.6952 -0.2751
vn -0.8567 0.3743 -0.3548
vn -0.8567 -0.3743 -0.3548
vn -0.3724 -0.9152 -0.1542
vn -0.9273 -0.3743 0.0000
vn -1.0000 0.0000 0.0000
vn -0.7188 -0.6952 0.0000
vn -0.4031 0.9152 0.0000
vn -0.9273 0.3743 0.0000
vn -0.4031 -0.9152 0.0000
vn -0.7188 0.6952 0.0000
vn -0.3724 0.9152 0.1542
vn -0.8567 0.3743 0.3548
vn -0.8567 -0.3743 0.3548
vn -0.3724 -0.9152 0.1542
vn -0.6641 0.6952 0.2751
vn -0.9239 0.0000 0.3827
vn -0.6641 -0.6952 0.2751
vn -0.5083 -0.6952 0.5083
vn -0.6557 -0.3743 0.6557
vn -0.2850 -0.9152 0.2850
vn -0.2850 0.9152 0.2850
vn -0.6557 0.3743 0.6557
vn -0.5083 0.6952 0.5083
vn -0.7071 0.0000 0.7071
vn -0.1542 0.9152 0.3724
vn -0.3548 0.3743 0.8567
vn -0.2751 0.6952 0.6641
vn -0.3827 0.0000 0.9239
vn -0.2751 -0.6952 0.6641
vn -0.3548 -0.3743 0.8567
vn -0.1542 -0.9152 0.3724
usemtl Material.002
s 1
f 113/1/1 10/2/2 11/3/3
f 2/4/4 9/5/5 3/6/6
f 112/7/7 7/8/8 1/9/9
f 113/1/1 12/10/10 5/11/11
f 3/6/6 10/2/2 4/12/12
f 1/9/9 8/13/13 2/4/4
f 112/7/7 111/14/14 6/15/15
f 114/16/16 5/11/11 12/10/10
f 12/10/10 18/17/17 19/18/18
f 9/5/5 17/19/19 10/2/2
f 7/8/8 15/20/20 8/13/13
f 6/15/15 111/21/14 13/22/21
f 114/23/16 12/10/10 19/18/18
f 11/3/3 17/19/19 18/17/17
f 8/13/13 16/24/22 9/5/5
f 6/15/15 14/25/23 7/8/8
f 14/25/23 22/26/24 15/20/20
f 13/22/21 111/27/14 20/28/25
f 114/29/16 19/18/18 26/30/26
f 18/17/17 24/31/27 25/32/28
f 15/20/20 23/33/29 16/24/22
f 13/22/21 21/34/30 14/25/23
f 18/17/17 26/30/26 19/18/18
f 16/24/22 24/31/27 17/19/19
f 114/35/16 26/30/26 33/36/31
f 24/31/27 32/37/32 25/32/28
f 22/26/24 30/38/33 23/33/29
f 20/28/25 28/39/34 21/34/30
f 26/30/26 32/37/32 33/36/31
f 23/33/29 31/40/35 24/31/27
f 22/26/24 28/39/34 29/41/36
f 20/28/25 111/42/14 27/43/37
f 27/43/37 35/44/38 28/39/34
f 32/37/32 40/45/39 33/36/31
f 30/38/33 38/46/40 31/40/35
f 28/39/34 36/47/41 29/41/36
f 27/43/37 111/48/14 34/49/42
f 114/50/16 33/36/31 40/45/39
f 31/40/35 39/51/43 32/37/32
f 29/41/36 37/52/44 30/38/33
f 39/51/43 47/53/45 40/45/39
f 38/46/40 44/54/46 45/55/47
f 35/44/38 43/56/48 36/47/41
f 34/49/42 111/57/14 41/58/49
f 114/59/16 40/45/39 47/53/45
f 38/46/40 46/60/50 39/51/43
f 36/47/41 44/54/46 37/52/44
f 34/49/42 42/61/51 35/44/38
f 41/58/49 111/62/14 48/63/52
f 114/64/16 47/53/45 54/65/53
f 46/60/50 52/66/54 53/67/55
f 43/56/48 51/68/56 44/54/46
f 41/58/49 49/69/57 42/61/51
f 46/60/50 54/65/53 47/53/45
f 44/54/46 52/66/54 45/55/47
f 42/61/51 50/70/58 43/56/48
f 52/66/54 60/71/59 53/67/55
f 50/70/58 58/72/60 51/68/56
f 49/69/57 55/73/61 56/74/62
f 53/67/55 61/75/63 54/65/53
f 51/68/56 59/76/64 52/66/54
f 49/69/57 57/77/65 50/70/58
f 48/63/52 111/78/14 55/73/61
f 114/79/16 54/65/53 61/75/63
f 60/71/59 68/80/66 61/75/63
f 58/72/60 66/81/67 59/76/64
f 56/74/62 64/82/68 57/77/65
f 55/73/61 111/83/14 62/84/69
f 114/85/16 61/75/63 68/80/66
f 59/76/64 67/86/70 60/71/59
f 57/77/65 65/87/71 58/72/60
f 56/74/62 62/84/69 63/88/72
f 65/87/71 73/89/73 66/81/67
f 63/88/72 71/90/74 64/82/68
f 62/84/69 111/91/14 69/92/75
f 114/93/16 68/80/66 75/94/76
f 67/86/70 73/89/73 74/95/77
f 64/82/68 72/96/78 65/87/71
f 62/84/69 70/97/79 63/88/72
f 67/86/70 75/94/76 68/80/66
f 114/98/16 75/94/76 82/99/80
f 73/89/73 81/100/81 74/95/77
f 71/90/74 79/101/82 72/96/78
f 69/92/75 77/102/83 70/97/79
f 74/95/77 82/99/80 75/94/76
f 72/96/78 80/103/84 73/89/73
f 70/97/79 78/104/85 71/90/74
f 69/92/75 111/105/14 76/106/86
f 79/101/82 85/107/87 86/108/88
f 76/106/86 84/109/89 77/102/83
f 81/100/81 89/110/90 82/99/80
f 80/103/84 86/108/88 87/111/91
f 77/102/83 85/107/87 78/104/85
f 76/106/86 111/112/14 83/113/92
f 114/114/16 82/99/80 89/110/90
f 80/103/84 88/115/93 81/100/81
f 88/116/93 96/117/94 89/118/90
f 86/119/88 94/120/95 87/121/91
f 84/122/89 92/123/96 85/124/87
f 83/125/92 111/126/14 90/127/97
f 114/128/16 89/118/90 96/117/94
f 88/116/93 94/120/95 95/129/98
f 85/124/87 93/130/99 86/119/88
f 83/125/92 91/131/100 84/122/89
f 92/123/96 98/132/101 99/133/102
f 90/127/97 111/134/14 97/135/103
f 114/136/16 96/117/94 103/137/104
f 95/129/98 101/138/105 102/139/106
f 92/123/96 100/140/107 93/130/99
f 90/127/97 98/132/101 91/131/100
f 95/129/98 103/137/104 96/117/94
f 93/130/99 101/138/105 94/120/95
f 114/141/16 103/137/104 110/142/108
f 102/139/106 108/143/109 109/144/110
f 99/133/102 107/145/111 100/140/107
f 97/135/103 105/146/112 98/132/101
f 102/139/106 110/142/108 103/137/104
f 100/140/107 108/143/109 101/138/105
f 98/132/101 106/147/113 99/133/102
f 97/135/103 111/148/14 104/149/114
f 104/149/114 1/9/9 105/146/112
f 109/144/110 5/11/11 110/142/108
f 107/145/111 4/12/12 108/143/109
f 106/147/113 1/9/9 2/4/4
f 104/149/114 111/150/14 112/7/7
f 114/151/16 110/142/108 5/11/11
f 109/144/110 4/12/12 113/1/1
f 107/145/111 2/4/4 3/6/6
f 113/1/1 4/12/12 10/2/2
f 2/4/4 8/13/13 9/5/5
f 112/7/7 6/15/15 7/8/8
f 113/1/1 11/3/3 12/10/10
f 3/6/6 9/5/5 10/2/2
f 1/9/9 7/8/8 8/13/13
f 12/10/10 11/3/3 18/17/17
f 9/5/5 16/24/22 17/19/19
f 7/8/8 14/25/23 15/20/20
f 11/3/3 10/2/2 17/19/19
f 8/13/13 15/20/20 16/24/22
f 6/15/15 13/22/21 14/25/23
f 14/25/23 21/34/30 22/26/24
f 18/17/17 17/19/19 24/31/27
f 15/20/20 22/26/24 23/33/29
f 13/22/21 20/28/25 21/34/30
f 18/17/17 25/32/28 26/30/26
f 16/24/22 23/33/29 24/31/27
f 24/31/27 31/40/35 32/37/32
f 22/26/24 29/41/36 30/38/33
f 20/28/25 27/43/37 28/39/34
f 26/30/26 25/32/28 32/37/32
f 23/33/29 30/38/33 31/40/35
f 22/26/24 21/34/30 28/39/34
f 27/43/37 34/49/42 35/44/38
f 32/37/32 39/51/43 40/45/39
f 30/38/33 37/52/44 38/46/40
f 28/39/34 35/44/38 36/47/41
f 31/40/35 38/46/40 39/51/43
f 29/41/36 36/47/41 37/52/44
f 39/51/43 46/60/50 47/53/45
f 38/46/40 37/52/44 44/54/46
f 35/44/38 42/61/51 43/56/48
f 38/46/40 45/55/47 46/60/50
f 36/47/41 43/56/48 44/54/46
f 34/49/42 41/58/49 42/61/51
f 46/60/50 45/55/47 52/66/54
f 43/56/48 50/70/58 51/68/56
f 41/58/49 48/63/52 49/69/57
f 46/60/50 53/67/55 54/65/53
f 44/54/46 51/68/56 52/66/54
f 42/61/51 49/69/57 50/70/58
f 52/66/54 59/76/64 60/71/59
f 50/70/58 57/77/65 58/72/60
f 49/69/57 48/63/52 55/73/61
f 53/67/55 60/71/59 61/75/63
f 51/68/56 58/72/60 59/76/64
f 49/69/57 56/74/62 57/77/65
f 60/71/59 67/86/70 68/80/66
f 58/72/60 65/87/71 66/81/67
f 56/74/62 63/88/72 64/82/68
f 59/76/64 66/81/67 67/86/70
f 57/77/65 64/82/68 65/87/71
f 56/74/62 55/73/61 62/84/69
f 65/87/71 72/96/78 73/89/73
f 63/88/72 70/97/79 71/90/74
f 67/86/70 66/81/67 73/89/73
f 64/82/68 71/90/74 72/96/78
f 62/84/69 69/92/75 70/97/79
f 67/86/70 74/95/77 75/94/76
f 73/89/73 80/103/84 81/100/81
f 71/90/74 78/104/85 79/101/82
f 69/92/75 76/106/86 77/102/83
f 74/95/77 81/100/81 82/99/80
f 72/96/78 79/101/82 80/103/84
f 70/97/79 77/102/83 78/104/85
f 79/101/82 78/104/85 85/107/87
f 76/106/86 83/113/92 84/109/89
f 81/100/81 88/115/93 89/110/90
f 80/103/84 79/101/82 86/108/88
f 77/102/83 84/109/89 85/107/87
f 80/103/84 87/111/91 88/115/93
f 88/116/93 95/129/98 96/117/94
f 86/119/88 93/130/99 94/120/95
f 84/122/89 91/131/100 92/123/96
f 88/116/93 87/121/91 94/120/95
f 85/124/87 92/123/96 93/130/99
f 83/125/92 90/127/97 91/131/100
f 92/123/96 91/131/100 98/132/101
f 95/129/98 94/120/95 101/138/105
f 92/123/96 99/133/102 100/140/107
f 90/127/97 97/135/103 98/132/101
f 95/129/98 102/139/106 103/137/104
f 93/130/99 100/140/107 101/138/105
f 102/139/106 101/138/105 108/143/109
f 99/133/102 106/147/113 107/145/111
f 97/135/103 104/149/114 105/146/112
f 102/139/106 109/144/110 110/142/108
f 100/140/107 107/145/111 108/143/109
f 98/132/101 105/146/112 106/147/113
f 104/149/114 112/7/7 1/9/9
f 109/144/110 113/1/1 5/11/11
f 107/145/111 3/6/6 4/12/12
f 106/147/113 105/146/112 1/9/9
f 109/144/110 108/143/109 4/12/12
f 107/145/111 106/147/113 2/4/4
