# Blender v2.90.1 OBJ File: 'ball_hold.blend'
# www.blender.org
mtllib ball_power.mtl
o Plane
v -0.400000 0.000000 -0.001774
v 0.400000 0.000000 -0.001774
v -0.400000 0.000000 3.998226
v 0.400000 0.000000 3.998226
v -0.400000 0.044310 -0.001774
v 0.400000 0.044310 -0.001774
v -0.400000 0.044310 3.998226
v 0.400000 0.044310 3.998226
vt 1.000000 0.000000
vt 0.000000 1.000000
vt 0.000000 0.000000
vt 0.000000 1.000000
vt 1.000000 0.000000
vt 0.000000 0.000000
vt 1.000000 1.000000
vt 1.000000 1.000000
vn 0.0000 -1.0000 0.0000
vn 0.0000 1.0000 0.0000
vn 1.0000 0.0000 0.0000
vn -1.0000 0.0000 0.0000
vn 0.0000 0.0000 1.0000
vn 0.0000 0.0000 -1.0000
usemtl None
s off
f 2/1/1 3/2/1 1/3/1
f 7/4/2 6/5/2 5/6/2
f 6/5/3 4/7/3 2/1/3
f 7/4/4 1/3/4 3/2/4
f 8/8/5 3/2/5 4/7/5
f 5/6/6 2/1/6 1/3/6
f 2/1/1 4/7/1 3/2/1
f 7/4/2 8/8/2 6/5/2
f 6/5/3 8/8/3 4/7/3
f 7/4/4 5/6/4 1/3/4
f 8/8/5 7/4/5 3/2/5
f 5/6/6 6/5/6 2/1/6
