# Blender v2.90.1 OBJ File: 'sample_course.blend'
# www.blender.org
mtllib river.mtl
o River_Plane.001
v -0.361120 0.561457 -49.976711 0.02 0.5 0.8
v 11.331804 0.561457 -49.976711 0.02 0.5 0.8
v 0.201866 0.561457 -37.925896 0.02 0.5 0.8
v 12.551554 0.561457 -37.925896 0.02 0.5 0.8
v 4.231254 0.561457 -23.533173 0.02 0.5 0.8
v 15.927378 0.561457 -27.497448 0.02 0.5 0.8
v 17.556797 0.561457 -6.686049 0.02 0.5 0.8
v 26.325939 0.561457 -13.215255 0.02 0.5 0.8
v 29.026669 0.561457 -3.255429 0.02 0.5 0.8
v 30.569288 0.561457 -11.789062 0.02 0.5 0.8
v 41.159496 0.561457 -1.625908 0.02 0.5 0.8
v 43.196686 0.561457 -6.752370 0.02 0.5 0.8
v 48.139400 0.561457 7.676179 0.02 0.5 0.8
v 57.643902 0.561457 4.896504 0.02 0.5 0.8
v 52.855698 0.561457 25.575216 0.02 0.5 0.8
v 62.736465 0.561457 26.232895 0.02 0.5 0.8
v 48.849644 0.561457 33.383877 0.02 0.5 0.8
v 57.505047 0.561457 38.613342 0.02 0.5 0.8
v 34.500118 0.561457 50.137291 0.02 0.5 0.8
v 45.475407 0.561457 49.953255 0.02 0.5 0.8
vt 1.000000 0.000000
vt 0.000000 1.000000
vt 0.000000 0.000000
vt 1.000000 1.000000
vt 0.000000 1.000000
vt 1.000000 1.000000
vt 0.000000 1.000000
vt 1.000000 1.000000
vt 0.000000 1.000000
vt 1.000000 1.000000
vt 0.000000 1.000000
vt 1.000000 1.000000
vt 0.000000 1.000000
vt 1.000000 1.000000
vt 0.000000 1.000000
vt 1.000000 1.000000
vt 0.000000 1.000000
vt 1.000000 1.000000
vt 0.000000 1.000000
vt 1.000000 1.000000
vn 0.0000 -1.0000 -0.0000
usemtl Water
s off
f 2/1/1 3/2/1 1/3/1
f 4/4/1 5/5/1 3/2/1
f 6/6/1 7/7/1 5/5/1
f 8/8/1 9/9/1 7/7/1
f 10/10/1 11/11/1 9/9/1
f 12/12/1 13/13/1 11/11/1
f 14/14/1 15/15/1 13/13/1
f 15/15/1 18/16/1 17/17/1
f 17/17/1 20/18/1 19/19/1
f 2/1/1 4/4/1 3/2/1
f 4/4/1 6/6/1 5/5/1
f 6/6/1 8/8/1 7/7/1
f 8/8/1 10/10/1 9/9/1
f 10/10/1 12/12/1 11/11/1
f 12/12/1 14/14/1 13/13/1
f 14/14/1 16/20/1 15/15/1
f 15/15/1 16/20/1 18/16/1
f 17/17/1 18/16/1 20/18/1
