# Blender v2.90.1 OBJ File: 'sample_course.blend'
# www.blender.org
mtllib THE_CUBES.mtl
o Cube_Cube.003
v 33.694172 -3.197193 -3.680387 0.2 0.2 0.2
v 33.705368 -3.214414 -3.748048 0.2 0.2 0.2
v 33.639904 -3.199838 -3.725643 0.2 0.2 0.2
v 33.500988 -3.598252 -4.095522 0.2 0.2 0.2
v 33.453072 -3.649989 -4.090285 0.2 0.2 0.2
v 33.435524 -3.583677 -4.073117 0.2 0.2 0.2
v 33.365128 -3.389326 -3.274604 0.2 0.2 0.2
v 33.310860 -3.391970 -3.319861 0.2 0.2 0.2
v 33.317211 -3.441063 -3.269367 0.2 0.2 0.2
v 33.124027 -3.842121 -3.684503 0.2 0.2 0.2
v 33.112831 -3.824901 -3.616841 0.2 0.2 0.2
v 33.106480 -3.775809 -3.667335 0.2 0.2 0.2
v 34.093922 -3.551587 -3.524035 0.2 0.2 0.2
v 34.111469 -3.617899 -3.541203 0.2 0.2 0.2
v 34.105118 -3.568808 -3.591697 0.2 0.2 0.2
v 33.852821 -4.004383 -3.933934 0.2 0.2 0.2
v 33.900738 -3.952645 -3.939171 0.2 0.2 0.2
v 33.907089 -4.001738 -3.888677 0.2 0.2 0.2
v 33.764877 -3.743720 -3.118253 0.2 0.2 0.2
v 33.716961 -3.795457 -3.113016 0.2 0.2 0.2
v 33.782425 -3.810032 -3.135421 0.2 0.2 0.2
v 33.523777 -4.196516 -3.528152 0.2 0.2 0.2
v 33.578045 -4.193871 -3.482894 0.2 0.2 0.2
v 33.512581 -4.179295 -3.460490 0.2 0.2 0.2
v 37.196667 -4.134988 -6.501708 0.2 0.2 0.2
v 37.208851 -4.178096 -6.556419 0.2 0.2 0.2
v 37.143322 -4.154765 -6.543696 0.2 0.2 0.2
v 37.002068 -4.666038 -6.726701 0.2 0.2 0.2
v 36.952736 -4.710589 -6.702581 0.2 0.2 0.2
v 36.936539 -4.642708 -6.713978 0.2 0.2 0.2
v 36.854267 -4.143011 -6.062915 0.2 0.2 0.2
v 36.800922 -4.162790 -6.104903 0.2 0.2 0.2
v 36.804935 -4.187562 -6.038795 0.2 0.2 0.2
v 36.610336 -4.718612 -6.263789 0.2 0.2 0.2
v 36.598152 -4.675504 -6.209077 0.2 0.2 0.2
v 36.594139 -4.650733 -6.275186 0.2 0.2 0.2
v 37.583763 -4.402740 -6.204543 0.2 0.2 0.2
v 37.599960 -4.470620 -6.193145 0.2 0.2 0.2
v 37.595947 -4.445848 -6.259254 0.2 0.2 0.2
v 37.339832 -4.978340 -6.405416 0.2 0.2 0.2
v 37.389164 -4.933790 -6.429536 0.2 0.2 0.2
v 37.393177 -4.958561 -6.363428 0.2 0.2 0.2
v 37.241364 -4.410763 -5.765750 0.2 0.2 0.2
v 37.192032 -4.455314 -5.741631 0.2 0.2 0.2
v 37.257561 -4.478644 -5.754353 0.2 0.2 0.2
v 36.997433 -4.986363 -5.966624 0.2 0.2 0.2
v 37.050777 -4.966585 -5.924636 0.2 0.2 0.2
v 36.985249 -4.943255 -5.911913 0.2 0.2 0.2
v 34.499214 -3.042569 -5.986384 0.2 0.2 0.2
v 34.487705 -3.026085 -6.054175 0.2 0.2 0.2
v 34.433117 -3.039638 -6.011325 0.2 0.2 0.2
v 34.215462 -3.265314 -6.476667 0.2 0.2 0.2
v 34.178066 -3.324774 -6.484775 0.2 0.2 0.2
v 34.160873 -3.278866 -6.433817 0.2 0.2 0.2
v 34.355103 -3.465303 -5.654159 0.2 0.2 0.2
v 34.289005 -3.462373 -5.679101 0.2 0.2 0.2
v 34.317707 -3.524764 -5.662267 0.2 0.2 0.2
v 34.033958 -3.747509 -6.152552 0.2 0.2 0.2
v 34.045467 -3.763992 -6.084759 0.2 0.2 0.2
v 34.016766 -3.701600 -6.101593 0.2 0.2 0.2
v 34.962852 -3.314432 -6.131200 0.2 0.2 0.2
v 34.980045 -3.360341 -6.182159 0.2 0.2 0.2
v 34.951344 -3.297948 -6.198993 0.2 0.2 0.2
v 34.641708 -3.596636 -6.629592 0.2 0.2 0.2
v 34.679104 -3.537177 -6.621485 0.2 0.2 0.2
v 34.707806 -3.599568 -6.604650 0.2 0.2 0.2
v 34.818745 -3.737166 -5.798976 0.2 0.2 0.2
v 34.781349 -3.796627 -5.807085 0.2 0.2 0.2
v 34.835938 -3.783075 -5.849935 0.2 0.2 0.2
v 34.497597 -4.019371 -6.297369 0.2 0.2 0.2
v 34.563694 -4.022302 -6.272426 0.2 0.2 0.2
v 34.509106 -4.035854 -6.229577 0.2 0.2 0.2
v 37.235554 -2.288377 -4.400474 0.2 0.2 0.2
v 37.224045 -2.271893 -4.468266 0.2 0.2 0.2
v 37.169456 -2.285446 -4.425416 0.2 0.2 0.2
v 36.951801 -2.511122 -4.890758 0.2 0.2 0.2
v 36.914406 -2.570581 -4.898865 0.2 0.2 0.2
v 36.897213 -2.524673 -4.847908 0.2 0.2 0.2
v 37.091442 -2.711111 -4.068249 0.2 0.2 0.2
v 37.025345 -2.708180 -4.093192 0.2 0.2 0.2
v 37.054047 -2.770571 -4.076357 0.2 0.2 0.2
v 36.770298 -2.993316 -4.566642 0.2 0.2 0.2
v 36.781807 -3.009800 -4.498849 0.2 0.2 0.2
v 36.753105 -2.947407 -4.515684 0.2 0.2 0.2
v 37.699192 -2.560239 -4.545290 0.2 0.2 0.2
v 37.716385 -2.606148 -4.596249 0.2 0.2 0.2
v 37.687683 -2.543756 -4.613083 0.2 0.2 0.2
v 37.378048 -2.842444 -5.043683 0.2 0.2 0.2
v 37.415443 -2.782984 -5.035575 0.2 0.2 0.2
v 37.444145 -2.845375 -5.018741 0.2 0.2 0.2
v 37.555084 -2.982974 -4.213066 0.2 0.2 0.2
v 37.517689 -3.042434 -4.221175 0.2 0.2 0.2
v 37.572277 -3.028882 -4.264025 0.2 0.2 0.2
v 37.233936 -3.265179 -4.711459 0.2 0.2 0.2
v 37.300034 -3.268109 -4.686516 0.2 0.2 0.2
v 37.245445 -3.281662 -4.643667 0.2 0.2 0.2
vt 0.394037 0.769037
vt 0.605963 0.980963
vt 0.394036 0.980964
vt 0.394037 0.519036
vt 0.605963 0.730964
vt 0.394037 0.730964
vt 0.355964 0.519036
vt 0.144037 0.730963
vt 0.144037 0.519036
vt 0.855963 0.519037
vt 0.644036 0.730964
vt 0.644037 0.519036
vt 0.394037 0.019037
vt 0.605964 0.230963
vt 0.394036 0.230964
vt 0.605964 0.269036
vt 0.394037 0.480963
vt 0.394036 0.269036
vt 0.605964 0.769037
vt 0.394036 0.980963
vt 0.394036 0.769036
vt 0.605964 0.519037
vt 0.394037 0.730963
vt 0.394037 0.519037
vt 0.355963 0.519036
vt 0.144037 0.730965
vt 0.144035 0.519036
vt 0.855964 0.519037
vt 0.644036 0.730963
vt 0.644037 0.519037
vt 0.394036 0.019037
vt 0.605963 0.230963
vt 0.394036 0.230963
vt 0.605964 0.269036
vt 0.394036 0.480963
vt 0.394036 0.269037
vt 0.605963 0.769036
vt 0.394035 0.980963
vt 0.394036 0.769035
vt 0.394036 0.519036
vt 0.605963 0.730964
vt 0.394036 0.730964
vt 0.144036 0.519037
vt 0.355965 0.730964
vt 0.144037 0.730964
vt 0.855964 0.519036
vt 0.644035 0.730964
vt 0.644036 0.519036
vt 0.394036 0.019036
vt 0.605964 0.230964
vt 0.394037 0.230964
vt 0.394035 0.269037
vt 0.605964 0.480963
vt 0.394036 0.480964
vt 0.605964 0.769036
vt 0.394036 0.980964
vt 0.394036 0.769036
vt 0.394036 0.519037
vt 0.605964 0.730963
vt 0.394036 0.730964
vt 0.644036 0.519037
vt 0.855964 0.730963
vt 0.644036 0.730964
vt 0.605964 0.019036
vt 0.394036 0.230964
vt 0.394035 0.019036
vt 0.394036 0.269036
vt 0.605965 0.480963
vt 0.394036 0.480964
vt 0.144036 0.730963
vt 0.144037 0.750000
vt 0.125000 0.730963
vt 0.625000 0.980964
vt 0.605963 1.000000
vt 0.144037 0.519037
vt 0.125000 0.519037
vt 0.144036 0.500000
vt 0.625000 0.269037
vt 0.605963 0.250001
vt 0.605963 0.250001
vt 0.355964 0.730963
vt 0.375000 0.730963
vt 0.355964 0.750000
vt 0.625000 0.769037
vt 0.605963 0.750000
vt 0.605963 0.750000
vt 0.355964 0.519037
vt 0.355964 0.500000
vt 0.375000 0.519037
vt 0.625000 0.519036
vt 0.605964 0.500000
vt 0.605964 0.500000
vt 0.144036 0.750001
vt 0.125000 0.730963
vt 0.605964 0.980964
vt 0.625000 0.980963
vt 0.605964 1.000000
vt 0.125000 0.519037
vt 0.144037 0.500000
vt 0.625000 0.269037
vt 0.625000 0.269037
vt 0.605964 0.250000
vt 0.355963 0.730964
vt 0.374999 0.730963
vt 0.355963 0.750001
vt 0.625000 0.769036
vt 0.625000 0.769037
vt 0.605964 0.750000
vt 0.355964 0.499999
vt 0.375000 0.519037
vt 0.625000 0.519037
vt 0.625000 0.519037
vt 0.605963 0.500000
vt 0.375001 0.980963
vt 0.375000 0.980964
vt 0.394035 0.999999
vt 0.605964 0.980965
vt 0.625000 0.980964
vt 0.605964 1.000000
vt 0.375000 0.230964
vt 0.394036 0.250000
vt 0.394036 0.250000
vt 0.855964 0.500000
vt 0.875001 0.519036
vt 0.355965 0.730964
vt 0.375000 0.730965
vt 0.355965 0.750001
vt 0.624999 0.769036
vt 0.605963 0.750001
vt 0.605963 0.750001
vt 0.355964 0.500000
vt 0.374999 0.519036
vt 0.625000 0.519036
vt 0.644036 0.500000
vt 0.375000 0.980964
vt 0.375000 0.980964
vt 0.394036 1.000000
vt 0.605964 0.980965
vt 0.625001 0.980964
vt 0.605964 1.000000
vt 0.375000 0.230963
vt 0.394035 0.249999
vt 0.394035 0.249999
vt 0.855964 0.519036
vt 0.855964 0.500000
vt 0.875000 0.519035
vt 0.375000 0.730964
vt 0.355965 0.750000
vt 0.625001 0.769036
vt 0.605964 0.750001
vt 0.605964 0.750001
vt 0.355963 0.519036
vt 0.355964 0.500000
vt 0.375000 0.519037
vt 0.625000 0.519037
vt 0.644035 0.500001
vt 0.394037 0.000000
vt 0.605963 0.019036
vt 0.625000 0.019036
vt 0.625000 0.480964
vt 0.605964 0.480964
vt 0.605964 0.519036
vt 0.605964 0.769037
vt 0.605964 0.000001
vt 0.394037 -0.000001
vt 0.625000 0.019037
vt 0.605964 0.019037
vt 0.605964 0.480963
vt 0.605963 0.730963
vt 0.625000 0.019037
vt 0.605964 0.019037
vt 0.605964 0.269035
vt 0.144036 0.500000
vt 0.605964 0.519036
vt 0.375001 0.769036
vt 0.625000 0.230965
vt 0.625000 0.019037
vt 0.605964 0.269036
vt 0.605964 0.230964
vt 0.144036 0.500000
vt 0.605964 0.519036
vt 0.375002 0.769037
vt 0.855964 0.730964
vt 0.855965 0.730964
vt 0.855963 0.730964
vt 0.605963 0.000000
vt 0.625000 0.230964
vt 0.625000 0.230962
vt 0.625000 0.480964
vt 0.375000 0.019035
vt 0.625000 0.230964
vt 0.375000 0.019036
vn 0.8883 0.3203 -0.3291
vn 0.1468 0.2842 -0.9474
vn 0.3977 0.7552 -0.5210
vn 0.5523 -0.4398 0.7082
vn 0.7053 -0.6751 -0.2163
vn 0.9561 -0.2040 0.2102
vn 0.3527 0.5983 0.7195
vn 0.2978 0.9367 -0.1838
vn -0.1224 0.9269 0.3547
vn -0.7687 -0.5042 -0.3935
vn 0.1257 -0.7033 -0.6996
vn -0.2781 -0.9391 -0.2016
vn -0.3015 0.9109 -0.2817
vn -0.9561 0.2040 -0.2102
vn -0.7053 0.6751 0.2163
vn -0.8883 -0.3203 0.3291
vn -0.1468 -0.2841 0.9474
vn -0.6374 0.1508 0.7555
vn 0.6492 -0.4511 -0.6123
vn 0.4279 0.4764 -0.7681
vn 0.9030 0.1478 -0.4033
vn 0.2719 -0.7255 0.6322
vn 0.9459 -0.1168 0.3027
vn 0.5257 -0.1267 0.8412
vn 0.6243 -0.0499 0.7796
vn 0.2321 0.8025 0.5495
vn 0.0553 0.2837 0.9573
vn -0.7729 -0.6081 -0.1809
vn 0.1224 -0.9269 -0.3547
vn -0.2978 -0.9367 0.1838
vn -0.2719 0.7255 -0.6322
vn -0.9459 0.1168 -0.3027
vn -0.6921 0.7157 -0.0937
vn -0.9030 -0.1477 0.4033
vn -0.1741 0.1225 0.9771
vn -0.6493 0.4511 0.6123
vn 0.3441 0.3513 -0.8707
vn 0.1092 0.9786 -0.1744
vn 0.6782 0.6449 -0.3522
vn 0.8079 -0.5402 0.2353
vn 0.6507 -0.3150 -0.6909
vn 0.9848 -0.0214 -0.1724
vn 0.0552 0.2837 0.9573
vn 0.8011 0.4689 0.3718
vn -0.8012 -0.4689 -0.3718
vn -0.0553 -0.2837 -0.9573
vn -0.2321 -0.8025 -0.5495
vn -0.4738 0.8338 0.2832
vn -0.9848 0.0214 0.1724
vn -0.6507 0.3150 0.6909
vn -0.3441 -0.3513 0.8707
vn -0.1092 -0.9786 0.1744
vn 0.2249 -0.6850 0.6930
vn -0.2321 -0.8025 -0.5496
vn -0.6243 0.0499 -0.7796
vn -0.8079 0.5402 -0.2353
vn 0.2781 0.9391 0.2016
vn -0.3649 -0.2684 -0.8915
vn -0.5523 0.4398 -0.7082
vn -0.1257 0.7033 0.6996
vn 0.7687 0.5042 0.3935
vn 0.6374 -0.1508 -0.7555
vn 0.3649 0.2684 0.8915
vn 0.3014 -0.9109 0.2817
vn -0.3977 -0.7552 0.5210
vn 0.1741 -0.1225 -0.9771
vn -0.3527 -0.5983 -0.7195
vn -0.5257 0.1267 -0.8412
vn 0.7729 0.6082 0.1809
vn 0.6921 -0.7157 0.0937
vn -0.4279 -0.4764 0.7681
vn -0.2249 0.6850 -0.6930
vn -0.6782 -0.6449 0.3522
vn 0.8012 0.4689 0.3718
vn 0.4738 -0.8338 -0.2832
usemtl None
s 1
f 15/1/1 4/2/2 2/3/3
f 21/4/4 18/5/5 14/6/6
f 43/7/7 25/8/8 31/9/9
f 10/10/10 16/11/11 22/12/12
f 3/13/13 12/14/14 8/15/15
f 11/16/16 20/17/17 9/18/18
f 41/19/19 26/20/20 39/21/21
f 47/22/22 38/23/23 45/24/24
f 67/25/25 49/26/26 55/27/27
f 34/28/28 40/29/29 46/30/30
f 27/31/31 36/32/32 32/33/33
f 35/34/34 44/35/35 33/36/36
f 65/37/37 50/38/38 63/39/39
f 69/40/40 66/41/41 62/42/42
f 79/43/43 85/44/44 73/45/26
f 58/46/45 64/47/46 70/48/47
f 51/49/48 60/50/49 56/51/50
f 57/52/51 72/53/52 68/54/53
f 89/55/37 74/56/38 87/57/39
f 93/58/40 90/59/41 86/60/42
f 94/61/54 77/62/55 88/63/46
f 78/64/56 80/65/50 75/66/48
f 81/67/51 96/68/52 92/69/53
f 1/70/57 2/71/3 3/72/13
f 4/2/2 5/73/58 6/74/59
f 7/75/60 8/76/15 9/77/18
f 10/78/10 11/79/16 12/80/14
f 13/81/61 14/82/6 15/83/1
f 16/84/11 17/85/62 18/86/5
f 19/87/63 20/88/17 21/89/4
f 22/90/12 23/91/64 24/92/65
f 25/8/8 26/93/20 27/94/31
f 28/95/66 29/96/67 30/97/68
f 31/9/9 32/98/33 33/99/36
f 34/100/28 35/101/34 36/102/32
f 37/103/69 38/104/23 39/105/21
f 40/106/29 41/107/19 42/108/70
f 43/7/7 44/109/35 45/110/24
f 46/111/30 47/112/22 48/113/71
f 49/114/26 50/115/38 51/116/48
f 52/117/72 53/118/55 54/119/56
f 55/120/27 56/121/50 57/122/51
f 58/46/45 59/123/73 60/124/49
f 61/125/74 62/126/42 63/127/39
f 64/128/46 65/129/37 66/130/41
f 67/25/25 68/131/53 69/132/40
f 70/48/47 71/133/75 72/134/52
f 73/135/26 74/136/38 75/137/48
f 76/138/72 77/139/55 78/140/56
f 79/141/43 80/142/50 81/143/51
f 82/144/45 83/145/73 84/146/49
f 85/44/44 86/147/42 87/148/39
f 88/149/46 89/150/37 90/151/41
f 91/152/25 92/153/53 93/154/40
f 94/61/54 95/155/75 96/156/52
f 7/75/60 3/72/13 8/76/15
f 2/157/3 6/158/59 3/13/13
f 5/159/58 12/14/14 6/158/59
f 9/18/18 12/14/14 11/16/16
f 19/87/63 9/77/18 20/88/17
f 22/160/12 11/16/16 10/78/10
f 21/4/4 24/161/65 23/162/64
f 13/81/61 21/4/4 14/6/6
f 22/12/12 18/5/5 23/162/64
f 15/1/1 18/5/5 17/163/62
f 1/70/57 15/83/1 2/71/3
f 5/73/58 17/163/62 16/84/11
f 25/8/8 32/98/33 31/9/9
f 28/164/66 27/31/31 26/165/20
f 29/166/67 36/32/32 30/167/68
f 35/34/34 32/33/33 36/32/32
f 31/9/9 44/109/35 43/7/7
f 34/100/28 48/168/71 35/34/34
f 47/22/22 44/35/35 48/168/71
f 43/7/7 38/23/23 37/103/69
f 40/29/29 47/22/22 46/30/30
f 41/19/19 38/23/23 42/169/70
f 25/8/8 39/105/21 26/93/20
f 40/106/29 28/95/66 41/19/19
f 55/120/27 51/49/48 56/51/50
f 50/38/38 54/119/56 51/116/48
f 53/170/55 60/50/49 54/171/56
f 57/52/51 60/50/49 59/172/73
f 67/25/25 57/173/51 68/131/53
f 58/46/45 72/134/52 59/123/73
f 69/40/40 72/53/52 71/174/75
f 61/125/74 69/40/40 62/42/42
f 70/48/47 66/41/41 71/174/75
f 63/39/39 66/41/41 65/37/37
f 61/175/74 50/38/38 49/114/26
f 53/118/55 65/37/37 64/128/46
f 79/141/43 75/66/48 80/65/50
f 76/138/72 75/137/48 74/56/38
f 82/176/45 78/64/56 77/177/55
f 83/178/73 80/65/50 84/179/49
f 91/152/25 81/180/51 92/153/53
f 82/144/45 96/156/52 83/145/73
f 95/181/75 92/69/53 96/68/52
f 85/44/44 93/58/40 86/60/42
f 94/61/54 90/59/41 95/181/75
f 89/55/37 86/60/42 90/59/41
f 85/182/44 74/56/38 73/135/26
f 77/139/55 89/55/37 88/149/46
f 19/87/63 1/70/57 7/75/60
f 15/1/1 17/163/62 4/2/2
f 21/4/4 23/162/64 18/5/5
f 43/7/7 37/103/69 25/8/8
f 10/10/10 5/183/58 16/11/11
f 3/13/13 6/158/59 12/14/14
f 11/16/16 24/161/65 20/17/17
f 41/19/19 28/95/66 26/20/20
f 47/22/22 42/169/70 38/23/23
f 67/25/25 61/125/74 49/26/26
f 34/28/28 29/184/67 40/29/29
f 27/31/31 30/167/68 36/32/32
f 35/34/34 48/168/71 44/35/35
f 65/37/37 52/117/72 50/38/38
f 69/40/40 71/174/75 66/41/41
f 79/43/43 91/152/25 85/44/44
f 58/46/45 53/185/55 64/47/46
f 51/49/48 54/171/56 60/50/49
f 57/52/51 59/172/73 72/53/52
f 89/55/37 76/138/72 74/56/38
f 93/58/40 95/181/75 90/59/41
f 94/61/54 82/144/45 77/62/55
f 78/64/56 84/179/49 80/65/50
f 81/67/51 83/178/73 96/68/52
f 7/75/60 1/70/57 3/72/13
f 2/157/3 4/186/2 6/158/59
f 5/159/58 10/187/10 12/14/14
f 9/18/18 8/15/15 12/14/14
f 19/87/63 7/75/60 9/77/18
f 22/160/12 24/161/65 11/16/16
f 21/4/4 20/17/17 24/161/65
f 13/81/61 19/87/63 21/4/4
f 22/12/12 16/11/11 18/5/5
f 15/1/1 14/6/6 18/5/5
f 1/70/57 13/81/61 15/83/1
f 5/73/58 4/2/2 17/163/62
f 25/8/8 27/94/31 32/98/33
f 28/164/66 30/167/68 27/31/31
f 29/166/67 34/188/28 36/32/32
f 35/34/34 33/36/36 32/33/33
f 31/9/9 33/99/36 44/109/35
f 34/100/28 46/189/30 48/168/71
f 47/22/22 45/24/24 44/35/35
f 43/7/7 45/24/24 38/23/23
f 40/29/29 42/169/70 47/22/22
f 41/19/19 39/21/21 38/23/23
f 25/8/8 37/103/69 39/105/21
f 40/106/29 29/96/67 28/95/66
f 55/120/27 49/190/26 51/49/48
f 50/38/38 52/117/72 54/119/56
f 53/170/55 58/191/45 60/50/49
f 57/52/51 56/51/50 60/50/49
f 67/25/25 55/27/27 57/173/51
f 58/46/45 70/48/47 72/134/52
f 69/40/40 68/54/53 72/53/52
f 61/125/74 67/25/25 69/40/40
f 70/48/47 64/47/46 66/41/41
f 63/39/39 62/42/42 66/41/41
f 61/175/74 63/39/39 50/38/38
f 53/118/55 52/117/72 65/37/37
f 79/141/43 73/192/26 75/66/48
f 76/138/72 78/140/56 75/137/48
f 82/176/45 84/179/49 78/64/56
f 83/178/73 81/67/51 80/65/50
f 91/152/25 79/43/43 81/180/51
f 82/144/45 94/61/54 96/156/52
f 95/181/75 93/58/40 92/69/53
f 85/44/44 91/152/25 93/58/40
f 94/61/54 88/63/46 90/59/41
f 89/55/37 87/57/39 86/60/42
f 85/182/44 87/57/39 74/56/38
f 77/139/55 76/138/72 89/55/37
f 19/87/63 13/81/61 1/70/57
