# Blender v2.90.1 OBJ File: 'sample_course.blend'
# www.blender.org
mtllib tree.mtl
o Tree_Cylinder.003
v 0.000000 1.000000 1.000000 0.233 0.103 0.026
v -0.000000 -11.316793 0.666693 0.233 0.103 0.026
v 0.707107 1.000000 0.707107 0.233 0.103 0.026
v 0.471423 -11.316793 0.471423 0.233 0.103 0.026
v 1.000000 1.000000 -0.000000 0.233 0.103 0.026
v 0.666693 -11.316793 -0.000000 0.233 0.103 0.026
v 0.707107 1.000000 -0.707107 0.233 0.103 0.026
v 0.471423 -11.316793 -0.471423 0.233 0.103 0.026
v -0.000000 1.000000 -1.000000 0.233 0.103 0.026
v -0.000000 -11.316793 -0.666693 0.233 0.103 0.026
v -0.707107 1.000000 -0.707107 0.233 0.103 0.026
v -0.471423 -11.316793 -0.471423 0.233 0.103 0.026
v -1.000000 1.000000 0.000000 0.233 0.103 0.026
v -0.666693 -11.316793 0.000000 0.233 0.103 0.026
v -0.707107 1.000000 0.707107 0.233 0.103 0.026
v -0.471423 -11.316793 0.471423 0.233 0.103 0.026
v -0.000000 -13.049186 0.000000 0.0 0.15 0.0
v -0.058132 -13.385697 -0.024079 0.0 0.15 0.0
v -5.969867 -8.384583 2.887273 0.0 0.15 0.0
v -2.725958 -8.384583 -4.944218 0.0 0.15 0.0
v 0.041894 -13.385697 0.025530 0.0 0.15 0.0
v 5.953628 -8.384583 -2.885823 0.0 0.15 0.0
v 2.709720 -8.384583 4.945669 0.0 0.15 0.0
v -0.050176 -14.192165 0.028689 0.0 0.15 0.0
v -0.443316 -9.667748 5.977323 0.0 0.15 0.0
v -5.111758 -9.667748 -0.106709 0.0 0.15 0.0
v 0.033938 -14.192165 -0.027239 0.0 0.15 0.0
v 0.427077 -9.667748 -5.975870 0.0 0.15 0.0
v 5.095520 -9.667748 0.108160 0.0 0.15 0.0
v -0.005275 -14.642778 0.045679 0.0 0.15 0.0
v 4.413949 -11.674442 3.001985 0.0 0.15 0.0
v -2.366949 -11.674442 3.894707 0.0 0.15 0.0
v -0.010964 -14.642778 -0.044228 0.0 0.15 0.0
v -4.430188 -11.674442 -3.000532 0.0 0.15 0.0
v 2.350711 -11.674442 -3.893257 0.0 0.15 0.0
v -0.012343 -12.365487 -0.066030 0.0 0.15 0.0
v -6.574868 -6.373355 -4.456130 0.0 0.15 0.0
v 3.494732 -6.373355 -5.781817 0.0 0.15 0.0
v -0.003896 -12.365487 0.067481 0.0 0.15 0.0
v 6.558630 -6.373355 4.457579 0.0 0.15 0.0
v -3.510971 -6.373355 5.783269 0.0 0.15 0.0
v 0.050536 -12.060818 -0.038275 0.0 0.15 0.0
v 0.598837 -5.750758 -8.334643 0.0 0.15 0.0
v 7.109765 -5.750758 0.150562 0.0 0.15 0.0
v -0.066775 -12.060818 0.039726 0.0 0.15 0.0
v -0.615075 -5.750758 8.336095 0.0 0.15 0.0
v -7.126004 -5.750758 -0.149111 0.0 0.15 0.0
v 0.054984 -10.515889 0.032022 0.0 0.15 0.0
v 7.514001 -4.297924 -3.641318 0.0 0.15 0.0
v 3.421060 -4.297924 6.239913 0.0 0.15 0.0
v -0.071222 -10.515889 -0.030572 0.0 0.15 0.0
v -7.530239 -4.297924 3.642771 0.0 0.15 0.0
v -3.437299 -4.297924 -6.238462 0.0 0.15 0.0
vt 1.000000 1.000000
vt 0.875000 0.500000
vt 1.000000 0.500000
vt 0.875000 1.000000
vt 0.750000 0.500000
vt 0.750000 1.000000
vt 0.625000 0.500000
vt 0.625000 1.000000
vt 0.500000 0.500000
vt 0.375000 1.000000
vt 0.375000 0.500000
vt 0.250000 0.500000
vt 0.750000 1.000000
vt 0.250000 1.000000
vt 0.125000 0.500000
vt 0.125000 1.000000
vt 0.000000 0.500000
vt 0.250000 1.000000
vt 0.375000 1.000000
vt 0.250000 1.000000
vt 0.500000 1.000000
vt 0.375000 1.000000
vt 0.000000 1.000000
vt 0.000000 1.000000
vt 0.875000 1.000000
vt 0.625000 1.000000
vt 0.125000 1.000000
vt 0.500000 1.000000
vt 0.250000 1.000000
vt 0.375000 1.000000
vt 0.250000 1.000000
vt 0.250000 1.000000
vt 0.375000 1.000000
vt 0.250000 1.000000
vt 0.250000 1.000000
vt 0.375000 1.000000
vt 0.250000 1.000000
vt 0.250000 1.000000
vt 0.375000 1.000000
vt 0.250000 1.000000
vt 0.250000 1.000000
vt 0.375000 1.000000
vt 0.250000 1.000000
vt 0.250000 1.000000
vt 0.375000 1.000000
vt 0.250000 1.000000
vt 0.250000 1.000000
vt 0.375000 1.000000
vt 0.250000 1.000000
vt 0.250000 1.000000
vt 0.375000 1.000000
vt 0.250000 1.000000
vt 0.250000 1.000000
vt 0.375000 1.000000
vt 0.250000 1.000000
vt 0.250000 1.000000
vt 0.375000 1.000000
vt 0.250000 1.000000
vt 0.250000 1.000000
vt 0.375000 1.000000
vt 0.250000 1.000000
vn 0.3826 -0.0250 0.9236
vn 0.9236 -0.0250 0.3826
vn 0.9236 -0.0250 -0.3826
vn 0.3826 -0.0250 -0.9236
vn -0.3826 -0.0250 -0.9236
vn -0.9236 -0.0250 -0.3826
vn 0.8705 -0.3350 0.3606
vn -0.9236 -0.0250 0.3826
vn -0.3826 -0.0250 0.9236
vn -0.6972 -0.6561 -0.2888
vn -0.3606 -0.3350 -0.8705
vn -0.3606 -0.3350 0.8705
vn 0.3606 -0.3350 0.8705
vn 0.8705 -0.3350 -0.3606
vn -0.8705 -0.3350 -0.3606
vn 0.3606 -0.3350 -0.8705
vn -0.8705 -0.3350 0.3606
vn 0.6972 -0.6561 0.2888
vn -0.5987 -0.6561 0.4594
vn 0.5987 -0.6561 -0.4594
vn 0.0843 -0.7634 0.6404
vn -0.0843 -0.7634 -0.6404
vn -0.0985 -0.6561 -0.7482
vn 0.0985 -0.6561 0.7482
vn 0.6928 -0.6616 0.2870
vn -0.6928 -0.6616 -0.2870
usemtl Material.004
s off
f 2/1/1 3/2/1 1/3/1
f 4/4/2 5/5/2 3/2/2
f 6/6/3 7/7/3 5/5/3
f 8/8/4 9/9/4 7/7/4
f 9/9/5 12/10/5 11/11/5
f 12/10/6 13/12/6 11/11/6
f 6/6/7 4/4/7 17/13/7
f 14/14/8 15/15/8 13/12/8
f 16/16/9 1/17/9 15/15/9
f 19/18/10 20/19/10 18/20/10
f 12/10/11 10/21/11 17/22/11
f 2/23/12 16/16/12 17/24/12
f 4/4/13 2/1/13 17/25/13
f 8/8/14 6/6/14 17/26/14
f 14/14/15 12/10/15 17/27/15
f 10/21/16 8/8/16 17/28/16
f 16/16/17 14/14/17 17/27/17
f 22/29/18 23/30/18 21/31/18
f 25/32/19 26/33/19 24/34/19
f 28/35/20 29/36/20 27/37/20
f 31/38/21 32/39/21 30/40/21
f 34/41/22 35/42/22 33/43/22
f 37/44/23 38/45/23 36/46/23
f 40/47/24 41/48/24 39/49/24
f 43/50/20 44/51/20 42/52/20
f 46/53/19 47/54/19 45/55/19
f 49/56/25 50/57/25 48/58/25
f 52/59/26 53/60/26 51/61/26
f 2/1/1 4/4/1 3/2/1
f 4/4/2 6/6/2 5/5/2
f 6/6/3 8/8/3 7/7/3
f 8/8/4 10/21/4 9/9/4
f 9/9/5 10/21/5 12/10/5
f 12/10/6 14/14/6 13/12/6
f 14/14/8 16/16/8 15/15/8
f 16/16/9 2/23/9 1/17/9
